<?xml version="1.0" encoding="UTF-8"?>
<svg id="Camada_1" data-name="Camada 1" xmlns="http://www.w3.org/2000/svg" xmlns:xlink="http://www.w3.org/1999/xlink" viewBox="0 0 400 100">
  <defs>
    <style>
      .cls-1 {
        fill: #fff;
      }

      .cls-2 {
        letter-spacing: -.02em;
      }

      .cls-3 {
        fill: url(#Gradiente_sem_nome_12);
      }

      .cls-4 {
        letter-spacing: 0em;
      }

      .cls-5 {
        letter-spacing: -.02em;
      }

      .cls-6 {
        clip-path: url(#clippath-2);
      }

      .cls-7 {
        fill: url(#Gradiente_sem_nome_3);
      }

      .cls-8 {
        clip-path: url(#clippath-6);
      }

      .cls-9 {
        letter-spacing: 0em;
      }

      .cls-10 {
        clip-path: url(#clippath-7);
      }

      .cls-11 {
        clip-path: url(#clippath-1);
      }

      .cls-12 {
        clip-path: url(#clippath-4);
      }

      .cls-13 {
        fill: url(#Gradiente_sem_nome_75);
      }

      .cls-14 {
        fill: url(#Gradiente_sem_nome_2);
      }

      .cls-15 {
        letter-spacing: -.02em;
      }

      .cls-16 {
        fill: #606060;
        font-family: UniNeueBook, 'Uni Neue';
        font-size: 18.16px;
      }

      .cls-17 {
        letter-spacing: 0em;
      }

      .cls-18 {
        fill: url(#Gradiente_sem_nome_10);
      }

      .cls-19 {
        clip-path: url(#clippath);
      }

      .cls-20 {
        clip-rule: evenodd;
      }

      .cls-20, .cls-21 {
        fill: none;
      }

      .cls-22 {
        clip-path: url(#clippath-3);
      }

      .cls-23 {
        clip-path: url(#clippath-5);
      }

      .cls-24 {
        fill: url(#Gradiente_sem_nome_65);
      }
    </style>
    <clipPath id="clippath">
      <rect class="cls-21" x="-1226.78" y="-110.89" width="400" height="700"/>
    </clipPath>
    <radialGradient id="Gradiente_sem_nome_10" data-name="Gradiente sem nome 10" cx="-722.67" cy="264.67" fx="-722.67" fy="264.67" r="397.11" gradientUnits="userSpaceOnUse">
      <stop offset="0" stop-color="#ed35bc"/>
      <stop offset="1" stop-color="#0b0d16" stop-opacity="0"/>
    </radialGradient>
    <clipPath id="clippath-1">
      <rect class="cls-21" x="-616.11" y="-110.89" width="399.22" height="698.67"/>
    </clipPath>
    <radialGradient id="Gradiente_sem_nome_2" data-name="Gradiente sem nome 2" cx="-1400.59" cy="-500.57" fx="-1400.59" fy="-500.57" r="95.1" gradientTransform="translate(3225.29 3629.24) scale(2.38 6.24)" gradientUnits="userSpaceOnUse">
      <stop offset="0" stop-color="#ed35bc"/>
      <stop offset="1" stop-color="#fff" stop-opacity="0"/>
    </radialGradient>
    <clipPath id="clippath-2">
      <rect class="cls-21" x="-565.6" y="59.33" width="299.25" height="245.42" rx="16.45" ry="16.45"/>
    </clipPath>
    <linearGradient id="Gradiente_sem_nome_65" data-name="Gradiente sem nome 65" x1="-715.98" y1="-101.13" x2="-190.19" y2="424.66" gradientUnits="userSpaceOnUse">
      <stop offset="0" stop-color="#ff3dc5"/>
      <stop offset="1" stop-color="#ffc302"/>
    </linearGradient>
    <clipPath id="clippath-3">
      <rect class="cls-21" x="-853.44" y="-996.22" width="400" height="600"/>
    </clipPath>
    <clipPath id="clippath-4">
      <rect class="cls-21" x="-1148.79" y="-996.82" width="1529.35" height="701.04"/>
    </clipPath>
    <clipPath id="clippath-5">
      <path class="cls-21" d="m-560.53-312.71s228.94-319.45,236.93-324.78c7.99-5.32,324.78-85.26,324.78-85.26l330.1,71.97L168.89-239.33l-580.29-49.91-149.13-23.46Z"/>
    </clipPath>
    <linearGradient id="Gradiente_sem_nome_3" data-name="Gradiente sem nome 3" x1="-11937.1" y1="-1188.35" x2="-13113.23" y2="-66.91" gradientTransform="translate(-13020.89 -1056.08) rotate(-180)" gradientUnits="userSpaceOnUse">
      <stop offset="0" stop-color="#d52aac"/>
      <stop offset=".17" stop-color="#ff3dc5"/>
      <stop offset="1" stop-color="#ffc302"/>
    </linearGradient>
    <clipPath id="clippath-6">
      <path class="cls-20" d="m405.25-597.42c-55.95-258.62-236.68-375.46-449.42-366.32,229.81,46.84,335.62,194.76,319.91,404.23-40.39,179.75-183.78,291.26-378.81,280.11-345.34-43.85-706.31-316.27-1037.93-266.45-291.06,58.82-404.1,434.55-159.08,619.96,64.47,48.78,157.22,81.22,239.86,77.93-163.3-30.04-263.19-151.36-226.77-312.39,56.5-157.96,193.79-221.95,437.15-136.18C-594.26-220.1-365.94-73.17-83.06-67.23c320.94,9.63,542.19-250.94,488.31-530.18"/>
    </clipPath>
    <linearGradient id="Gradiente_sem_nome_12" data-name="Gradiente sem nome 12" x1="-13082.23" y1="-725.78" x2="-11779.27" y2="-556.57" gradientTransform="translate(-13020.89 -1056.08) rotate(-180)" gradientUnits="userSpaceOnUse">
      <stop offset="0" stop-color="#1f90ff"/>
      <stop offset="1" stop-color="#ff3dc5"/>
    </linearGradient>
    <clipPath id="clippath-7">
      <path class="cls-20" d="m85.86-312.88c134.6-116.5,119.95-267.37-1.67-352.45-101.91-53.53-194.38-34.87-289.28,32.41-95.12,80.24-174.44,167.55-246.27,258.22C-537.2-245.05-636.14-120.1-755.82-2.64c-75.04,67.4-173.41,146.06-309.8,153.63-160.1-31.69-257.41-152.09-221.39-311.34,22.55-63.04,57.98-111.1,107.87-140.65-57.7,59.72-56.66,129.06-38.5,172.89,18.54,44.76,72.24,114.33,177.41,82.35,112.51-34.78,178.35-130.08,249.15-233.99,103.08-169.23,286.58-458.87,445.97-575.27,92.58-67.61,189.14-108.62,292.53-114.59l22.45,5.48c-4.67.08-9.34.2-14.04.4,229.81,46.84,335.62,194.76,319.91,404.23-25.78,114.73-93.53,201.65-189.88,246.63"/>
    </clipPath>
    <linearGradient id="Gradiente_sem_nome_75" data-name="Gradiente sem nome 75" x1="30.22" y1="63.54" x2="369.78" y2="63.54" gradientUnits="userSpaceOnUse">
      <stop offset="0" stop-color="#ff3dc5"/>
      <stop offset=".35" stop-color="#1f90ff"/>
      <stop offset=".72" stop-color="#ff4caf"/>
      <stop offset="1" stop-color="#ffa232"/>
    </linearGradient>
  </defs>
  <g class="cls-19">
    <rect class="cls-18" x="-1296.55" y="-125.11" width="1493.33" height="1270.35"/>
  </g>
  <g class="cls-11">
    <rect class="cls-14" x="-401.78" y="90" width="600.91" height="833.78"/>
  </g>
  <g class="cls-6">
    <path class="cls-24" d="m-1.89-70.05c-9.21-7.17-19.09-13.45-29.38-18.93-10.3-5.48-21.02-10.15-32.03-13.99-11.01-3.84-22.32-6.84-33.81-8.86-11.48-2.01-23.15-3.06-34.81-2.79l.03-.28c19.43,3.93,38.45,10.39,55.83,20.05,17.36,9.61,33.03,22.53,45.05,38.43,6,7.93,11.11,16.57,15.02,25.74C-12.07-21.53-9.28-11.88-7.65-2.05c1.64,9.84,2.12,19.85,1.59,29.81-.53,9.96-2.06,19.85-4.36,29.55v.05s-.04.06-.04.06c-4.68,12.4-10.52,24.41-17.8,35.55-.88,1.41-1.9,2.73-2.84,4.1-.98,1.34-1.87,2.75-2.94,4.03-2.07,2.61-4.09,5.26-6.37,7.7-4.37,5.04-9.28,9.59-14.41,13.86l-3.95,3.08-.99.77-1.03.71-2.07,1.41-2.07,1.41-1.04.7-1.08.64-4.31,2.57-1.08.64-1.11.57-2.23,1.15-2.23,1.15-1.12.57-1.15.5c-3.06,1.34-6.1,2.75-9.27,3.82-6.24,2.42-12.74,4.07-19.24,5.58l-4.93.9c-1.65.28-3.28.65-4.94.81l-4.97.63c-.83.1-1.66.23-2.49.29l-2.5.19c-13.31,1.09-26.69.68-39.92-.76-13.24-1.44-26.34-3.9-39.25-7.05-12.91-3.11-25.67-7.04-38.14-11.38-6.22-2.21-12.51-4.23-18.78-6.32l-18.82-6.21-4.05-1.34,2.47-3.62h0s1.58,4.95,1.58,4.95c-39-13.64-77.05-29.66-115.07-45.38l4.92-1.02c.18-.19.35-.4.49-.62l-5.41,1.65c-41.58-17.2-83.26-34.07-126.04-47.11-21.38-6.52-43.01-12.08-64.88-16.28-21.86-4.21-43.93-7.04-66.11-8.28l-8.32-.42c-1.39-.06-2.78-.17-4.16-.18l-4.14-.06c-5.51-.04-11.03-.29-16.52.06l-8.24.31c-.69.03-1.37.04-2.06.09l-2.05.19-4.1.38-8.2.75c-2.72.33-5.43.77-8.15,1.15-21.69,3.18-43.01,8.81-63.22,17.09-20.18,8.36-39.26,19.25-56.6,32.39l-1.65,1.21-1.58,1.29-3.15,2.59-3.16,2.58c-1.04.88-2.14,1.68-3.12,2.63l-6.01,5.51-3,2.75-2.85,2.92-5.69,5.82c-1.85,1.99-3.59,4.07-5.39,6.1-3.68,4-6.9,8.37-10.26,12.63l-1.25,1.6c-.42.54-.78,1.11-1.17,1.66l-2.32,3.34c-1.52,2.24-3.14,4.42-4.59,6.71l-4.25,6.93c-.7,1.16-1.43,2.3-2.11,3.47l-1.92,3.58-3.85,7.15c-1.19,2.43-2.3,4.9-3.46,7.34-2.43,4.84-4.25,9.95-6.31,14.94-.25.63-.51,1.25-.75,1.89l-.64,1.92-1.29,3.85-1.29,3.84c-.43,1.28-.89,2.55-1.21,3.87l-2.12,7.82c-.34,1.31-.75,2.6-1.03,3.92l-.83,3.97-1.66,7.93-1.2,8.01c-.95,5.32-1.21,10.73-1.74,16.1l-.18,2.02-.06,2.02-.12,4.05c-.06,2.7-.21,5.4-.2,8.1l.24,8.1.11,4.05c.06,1.35.22,2.69.33,4.04l.7,8.07.18,2.02.3,1.99.59,3.98c.41,2.65.74,5.31,1.2,7.96l1.75,7.96.87,3.98,1.03,3.97,2.06,7.94,2.35,7.85,1.18,3.92c.42,1.3.88,2.58,1.32,3.87l2.66,7.73,2.97,7.6c.5,1.26.97,2.54,1.51,3.79l1.64,3.73,1.64,3.73c.55,1.24,1.07,2.5,1.69,3.7,4.63,9.81,9.92,19.27,15.7,28.38,5.83,9.08,12.4,17.65,19.45,25.75,7.04,8.13,14.82,15.57,23.08,22.4,8.27,6.81,17.03,13.05,26.31,18.45,18.54,10.77,38.73,18.83,59.79,23.61l3.94.93,3.98.77c2.66.48,5.29,1.1,7.98,1.45l8.03,1.2,8.08.89c10.8,1.01,21.67,1.36,32.56,1.18l-1.9,19.51c-25.99-5.95-51.67-14.53-75.56-27.36-11.92-6.41-23.36-13.89-33.94-22.52-10.57-8.64-20.27-18.43-28.73-29.22-16.98-21.56-28.72-47.12-34.56-73.63-5.95-26.54-6.63-53.78-4.02-80.34l.07-.68.14-.57c3.47-13.7,8.12-27.13,14.06-40.01,5.96-12.87,13.09-25.24,21.67-36.61,8.54-11.37,18.25-21.9,29.12-31.09,10.88-9.18,22.79-17.11,35.4-23.62,25.33-12.87,53.28-20.02,81.29-21.65,3.5-.18,7.01-.43,10.51-.42l5.26-.07c1.75-.02,3.5.07,5.25.1l5.25.14,5.34.33,5.34.36,5.21.87c7.01,1.11,13.71,2.46,20.49,3.84l10.11,2.21,10.05,2.42c26.73,6.71,52.91,15.12,78.64,24.53,25.76,9.37,51.09,19.69,76.27,30.24,50.37,21.09,100.12,43.41,151.29,61.92,25.58,9.23,51.5,17.55,77.91,23.91,26.4,6.34,53.31,10.76,80.43,12,13.56.62,27.15.43,40.67-.72,3.38-.27,6.73-.69,10.1-1.03l1.26-.13,1.24-.24,2.48-.48c1.65-.34,3.31-.6,4.96-1.02l4.95-1.15c1.65-.38,3.27-.87,4.91-1.3,3.29-.83,6.5-1.92,9.74-2.9,6.41-2.19,12.78-4.55,18.95-7.35,6.17-2.82,12.26-5.81,18.11-9.27,5.86-3.42,11.59-7.08,17.04-11.12,5.47-4.01,10.79-8.26,15.8-12.84,20.18-18.2,36.56-40.6,47.85-65.37,11.28-24.76,17.41-51.92,17.45-79.17.05-6.81-.36-13.62-1.12-20.39-.33-3.39-.89-6.75-1.4-10.12l-.95-5.02c-.29-1.68-.74-3.33-1.1-4.99-1.56-6.63-3.44-13.2-5.8-19.59-2.35-6.39-4.96-12.7-8.08-18.77-3.09-6.07-6.43-12.03-10.23-17.69-3.76-5.68-7.8-11.19-12.21-16.39-2.14-2.66-4.48-5.13-6.75-7.68l-3.56-3.67-1.78-1.83-1.85-1.76-3.71-3.52-3.84-3.38-1.92-1.69-1.98-1.61-3.96-3.23Zm0,0l3.97,3.22,1.99,1.61,1.93,1.68,3.85,3.37,3.72,3.51,1.86,1.76,1.79,1.83,3.57,3.67c2.27,2.54,4.63,5.01,6.77,7.67,4.42,5.19,8.47,10.7,12.24,16.38,3.82,5.66,7.17,11.61,10.27,17.68,12.33,24.35,18.65,51.65,18.73,78.95.11,27.31-5.89,54.6-17.09,79.52-11.14,24.96-27.4,47.65-47.58,66.16-20.16,18.53-44.22,32.82-70.18,41.71-3.27,1.04-6.51,2.17-9.82,3.06-1.65.45-3.29.97-4.96,1.37l-5,1.22c-1.66.44-3.36.73-5.04,1.1l-2.53.52-1.27.26-1.28.15c-3.41.38-6.83.86-10.24,1.17-13.64,1.31-27.37,1.68-41.06,1.26-27.41-.85-54.64-4.93-81.34-10.94-26.73-5.98-52.97-13.92-78.84-22.78-51.76-17.75-102.07-39.15-152.69-59.27-25.31-10.06-50.7-19.86-76.38-28.66-25.66-8.85-51.64-16.66-77.94-22.75l-9.88-2.19-9.92-1.97c-6.61-1.22-13.31-2.43-19.79-3.33l-4.89-.73-4.87-.22-4.87-.22-4.98-.04c-1.66,0-3.32-.06-4.98,0l-4.97.16c-3.32.05-6.61.35-9.92.58-26.39,2.02-52.26,9.14-75.39,21.38-11.53,6.19-22.31,13.67-32.17,22.21-9.84,8.57-18.59,18.34-26.27,28.88-7.71,10.53-14.11,22.01-19.44,33.96-5.3,11.97-9.48,24.45-12.56,37.23l.21-1.24c-2.18,25.13-1.18,50.49,4.54,74.65,5.58,24.16,16.31,46.89,31.66,66.05,15.31,19.21,35.09,34.71,57.06,46.35,22,11.68,46.07,19.63,70.71,25.13l79.37,17.73-81.27,1.77c-11.63.25-23.29-.13-34.92-1.19l-8.71-.94c-2.9-.39-5.78-.85-8.68-1.27-2.9-.38-5.76-1.03-8.64-1.55l-4.31-.83-4.28-1c-22.87-5.16-45.02-13.9-65.42-25.73-10.19-5.95-19.82-12.83-28.91-20.34-9.07-7.53-17.6-15.73-25.3-24.63-7.71-8.88-14.86-18.25-21.18-28.13-.84-1.2-1.56-2.48-2.33-3.73l-2.27-3.76-2.26-3.77-2.1-3.85-2.09-3.85c-.7-1.28-1.41-2.56-2.03-3.89l-3.83-7.88c-.66-1.3-1.22-2.65-1.8-3.99l-1.74-4.01-1.74-4.01c-.57-1.34-1.06-2.71-1.59-4.06l-3.13-8.15-2.8-8.25c-.46-1.38-.94-2.75-1.38-4.13l-1.23-4.17-2.44-8.35-2.14-8.42-1.06-4.21-.92-4.27-1.83-8.55c-.49-2.89-.86-5.83-1.29-8.74l-.62-4.38-.31-2.19-.19-2.19-.72-8.75c-.11-1.46-.27-2.92-.33-4.38l-.1-4.39-.19-8.78c0-2.93.19-5.86.28-8.78l.17-4.39.09-2.19.21-2.19c.62-5.83.97-11.68,2.03-17.45l1.38-8.68,1.87-8.58.94-4.29c.31-1.43.77-2.83,1.14-4.24l2.37-8.46c.36-1.42.87-2.79,1.34-4.18l1.43-4.15,1.43-4.15.72-2.07c.26-.68.55-1.36.82-2.03,2.26-5.4,4.3-10.89,6.96-16.11,1.27-2.63,2.5-5.29,3.82-7.9l4.24-7.67,2.12-3.83c.75-1.25,1.55-2.48,2.32-3.72l4.67-7.41c1.6-2.44,3.35-4.78,5.03-7.17l2.54-3.57c.43-.59.83-1.2,1.29-1.77l1.36-1.71c3.66-4.55,7.19-9.2,11.19-13.45,1.96-2.16,3.86-4.37,5.87-6.48l6.18-6.18,3.09-3.09,3.25-2.92,6.51-5.82c1.06-1,2.25-1.85,3.37-2.78l3.41-2.73,3.41-2.73,1.71-1.36,1.77-1.27c18.75-13.8,39.26-25.1,60.81-33.67,21.59-8.49,44.23-14.11,67.13-17.07,2.87-.35,5.72-.77,8.59-1.07l8.63-.65,4.31-.32,2.16-.16c.72-.04,1.44-.04,2.16-.06l8.64-.19c5.77-.26,11.5.08,17.25.22l4.31.13c1.44.04,2.85.18,4.28.26l8.54.57c22.76,1.68,45.4,5.02,67.68,9.73,22.28,4.71,44.22,10.78,65.79,17.8,43.17,14.04,84.79,31.79,126.09,49.77l-5.41,1.65c.14-.22.31-.43.49-.63l2.13-2.24,2.79,1.21c37.76,16.44,75.35,33.08,113.85,47.33l4.03,1.49-2.46,3.46h0s-1.58-4.95-1.58-4.95l18.66,6.52c6.22,2.18,12.46,4.3,18.64,6.61,12.38,4.53,24.81,8.59,37.51,11.87,12.67,3.3,25.52,5.95,38.5,7.56,12.97,1.61,26.08,2.19,39.09,1.31l2.44-.15c.81-.05,1.62-.17,2.43-.25l4.86-.54c1.63-.14,3.22-.48,4.83-.73l4.82-.81c6.36-1.38,12.71-2.89,18.82-5.17,3.1-1,6.07-2.33,9.07-3.59l1.12-.47,1.09-.54,2.19-1.09,2.19-1.09,1.09-.54,1.06-.61,4.23-2.45,1.06-.61,1.02-.67,2.03-1.36,2.03-1.36,1.02-.68.97-.74,3.89-2.96c5.05-4.11,9.91-8.5,14.24-13.38,2.26-2.36,4.27-4.94,6.33-7.47,1.07-1.24,1.95-2.62,2.94-3.93.94-1.34,1.96-2.62,2.84-4,7.29-10.87,13.21-22.66,17.98-34.89l-.04.12C-7.55,37.74-6.01,17.69-9.09-1.81c-1.53-9.74-4.2-19.3-8-28.41-3.79-9.11-8.78-17.72-14.67-25.64-11.8-15.88-27.35-28.79-44.58-38.47-17.27-9.71-36.21-16.26-55.6-20.29l-1.26-.26,1.28-.02c11.68-.19,23.36.85,34.84,2.89,11.49,2.04,22.8,5.06,33.81,8.92,11.01,3.86,21.73,8.56,32.02,14.05,10.29,5.5,20.16,11.8,29.35,18.98Z"/>
  </g>
  <g class="cls-22">
    <g class="cls-12">
      <g>
        <g class="cls-23">
          <rect class="cls-7" x="-1323.03" y="-969.62" width="1614.48" height="1120.61"/>
        </g>
        <g class="cls-8">
          <rect class="cls-3" x="-1545.1" y="-972.88" width="2004.23" height="1128.2"/>
        </g>
        <g class="cls-10">
          <rect class="cls-7" x="-1323.03" y="-969.62" width="1614.48" height="1120.61"/>
        </g>
      </g>
    </g>
  </g>
  <g>
    <rect class="cls-1" width="400" height="100"/>
    <rect class="cls-13" x="30.22" y="54.21" width="339.56" height="18.67" rx="9.33" ry="9.33"/>
    <text class="cls-16" transform="translate(49.89 43.32)"><tspan x="0" y="0">Es</tspan><tspan class="cls-17" x="18.83" y="0">c</tspan><tspan x="27.22" y="0">olhe</tspan><tspan class="cls-5" x="61.36" y="0">r</tspan><tspan x="67.76" y="0" xml:space="preserve"> um plano idea</tspan><tspan class="cls-5" x="180.59" y="0">l</tspan><tspan x="185.22" y="0"> </tspan><tspan class="cls-9" x="189.43" y="0">f</tspan><tspan class="cls-4" x="194.95" y="0">az a di</tspan><tspan class="cls-2" x="243.44" y="0">f</tspan><tspan x="248.8" y="0">e</tspan><tspan class="cls-15" x="258.11" y="0">r</tspan><tspan x="264.54" y="0">ença</tspan></text>
  </g>
</svg>